<svg xmlns="http://www.w3.org/2000/svg" width="57.284" height="57.284" viewBox="0 0 57.284 57.284">
  <path id="pen-to-square-solid" d="M53.313,7.132a6.325,6.325,0,0,0-8.953,0l-3.4,3.391L52.025,21.591l3.4-3.4a6.325,6.325,0,0,0,0-8.953ZM19.489,32a6.246,6.246,0,0,0-1.526,2.476L14.617,44.517a2.727,2.727,0,0,0,.656,2.781,2.693,2.693,0,0,0,2.781.656l10.039-3.346a6.408,6.408,0,0,0,2.476-1.526L49.481,24.157,38.4,13.078ZM10.853,11.914A10.855,10.855,0,0,0,0,22.766v28.94A10.855,10.855,0,0,0,10.853,62.559h28.94A10.855,10.855,0,0,0,50.646,51.707V40.854a3.618,3.618,0,1,0-7.235,0V51.707a3.614,3.614,0,0,1-3.618,3.618H10.853a3.614,3.614,0,0,1-3.618-3.618V22.766a3.614,3.614,0,0,1,3.618-3.618H21.705a3.618,3.618,0,0,0,0-7.235Z" transform="translate(0 -5.275)" fill="#3a1d71"/>
</svg>
