<svg xmlns="http://www.w3.org/2000/svg" xmlns:xlink="http://www.w3.org/1999/xlink" width="69.924" height="128.243" viewBox="0 0 69.924 128.243">
  <defs>
    <linearGradient id="linear-gradient" y1="0.5" x2="1" y2="0.5" gradientUnits="objectBoundingBox">
      <stop offset="0.005" stop-color="#ebeaf0"/>
      <stop offset="0.989" stop-color="#e5e4ec"/>
    </linearGradient>
    <linearGradient id="linear-gradient-2" x1="0" y1="0.5" x2="1" y2="0.5" xlink:href="#linear-gradient"/>
    <linearGradient id="linear-gradient-3" x1="0" y1="0.5" x2="1" y2="0.5" xlink:href="#linear-gradient"/>
    <linearGradient id="linear-gradient-4" x1="0" y1="0.499" x2="1" y2="0.499" xlink:href="#linear-gradient"/>
    <linearGradient id="linear-gradient-5" x1="0.114" y1="0.502" x2="1.123" y2="0.502" xlink:href="#linear-gradient"/>
  </defs>
  <g id="Grupo_1106034" data-name="Grupo 1106034" transform="translate(-473.299 -406.221)">
    <g id="Grupo_1105927" data-name="Grupo 1105927" transform="translate(493.183 522.413)" opacity="0.1">
      <path id="Trazado_891220" data-name="Trazado 891220" d="M517.824,567.22c3.95,2.28,3.95,5.978,0,8.258a15.81,15.81,0,0,1-14.3,0c-3.95-2.28-3.95-5.978,0-8.258A15.81,15.81,0,0,1,517.824,567.22Z" transform="translate(-500.558 -565.51)" fill="#607080"/>
    </g>
    <g id="Grupo_1105941" data-name="Grupo 1105941" transform="translate(473.299 406.221)">
      <g id="Grupo_1105930" data-name="Grupo 1105930" transform="translate(17.865)">
        <path id="Trazado_891221" data-name="Trazado 891221" d="M541.54,430.479V492.8a1.514,1.514,0,0,1-1,1.614c0,.007-3.919,2.272-3.919,2.272l-2.153-5.048-29.129-16.819a6.038,6.038,0,0,1-2.916-4.6V416.476l-3.3-7.752,3.919-2.258a2.161,2.161,0,0,1,2.3.206l33.281,19.218A6.034,6.034,0,0,1,541.54,430.479Z" transform="translate(-498.152 -406.221)" fill="#784b86"/>
        <path id="Trazado_891222" data-name="Trazado 891222" d="M538.624,425.89l-4.278,2.425L514.676,427.1l-12.25-10.23v-.392l-3.3-7.753,3.919-2.258a2.161,2.161,0,0,1,2.3.206Z" transform="translate(-498.152 -406.221)" fill="#673a71"/>
        <path id="Trazado_891223" data-name="Trazado 891223" d="M497.791,473.555V411.23c0-1.608,1.3-2.159,2.912-1.231l33.284,19.216a6.039,6.039,0,0,1,2.912,4.593v62.325c0,1.608-1.3,2.159-2.912,1.231L500.7,478.149A6.04,6.04,0,0,1,497.791,473.555Z" transform="translate(-497.791 -407.121)" fill="#421d46"/>
        <path id="Trazado_891224" data-name="Trazado 891224" d="M534.435,431.185,501.294,412.05c-.875-.5-1.584-.205-1.584.67V474.9a3.285,3.285,0,0,0,1.584,2.5l33.141,19.135c.875.5,1.584.2,1.584-.67V433.682A3.284,3.284,0,0,0,534.435,431.185Z" transform="translate(-498.31 -407.732)" fill="#4cc1ec"/>
        <g id="Grupo_1105929" data-name="Grupo 1105929" transform="translate(1.959 45.722)">
          <path id="Trazado_891225" data-name="Trazado 891225" d="M506.2,479.477V485.2l-5.726-3.306v-4.7c0-.565.459-.759,1.024-.433Z" transform="translate(-500.477 -470.985)" fill="#fffeff"/>
          <path id="Trazado_891226" data-name="Trazado 891226" d="M514.294,483.988v5.723l-5.583-3.223v-5.723Z" transform="translate(-502.705 -472.111)" fill="#fffeff"/>
          <path id="Trazado_891227" data-name="Trazado 891227" d="M522.335,488.631v5.723l-5.586-3.225v-5.723Z" transform="translate(-504.88 -473.367)" fill="#fffeff"/>
          <path id="Trazado_891228" data-name="Trazado 891228" d="M530.374,493.272V499l-5.583-3.223v-5.723Z" transform="translate(-507.055 -474.623)" fill="#fffeff"/>
          <path id="Trazado_891229" data-name="Trazado 891229" d="M538.415,497.915v5.723l-5.586-3.225V494.69Z" transform="translate(-509.23 -475.878)" fill="#fffeff"/>
          <path id="Trazado_891230" data-name="Trazado 891230" d="M546.6,503.663v4.7l-5.726-3.306v-5.723l4.7,2.714A2.127,2.127,0,0,1,546.6,503.663Z" transform="translate(-511.406 -477.135)" fill="#fffeff"/>
          <path id="Trazado_891231" data-name="Trazado 891231" d="M546.6,510.869v5.586l-5.726-3.306v-5.587Z" transform="translate(-511.406 -479.361)" fill="#fffeff"/>
          <path id="Trazado_891232" data-name="Trazado 891232" d="M546.6,518.91v4.716c0,.565-.459.759-1.024.433l-4.7-2.714V515.6Z" transform="translate(-511.406 -481.537)" fill="#fffeff"/>
          <path id="Trazado_891233" data-name="Trazado 891233" d="M538.415,514.187v5.74l-5.586-3.225v-5.741Z" transform="translate(-509.23 -480.281)" fill="#fffeff"/>
          <path id="Trazado_891234" data-name="Trazado 891234" d="M530.374,509.544v5.74l-5.583-3.223V506.32Z" transform="translate(-507.055 -479.025)" fill="#fffeff"/>
          <path id="Trazado_891235" data-name="Trazado 891235" d="M522.335,504.9v5.74l-5.586-3.225v-5.741Z" transform="translate(-504.88 -477.769)" fill="#fffeff"/>
          <path id="Trazado_891236" data-name="Trazado 891236" d="M514.294,500.26V506l-5.583-3.223v-5.74Z" transform="translate(-502.705 -476.514)" fill="#fffeff"/>
          <path id="Trazado_891237" data-name="Trazado 891237" d="M506.2,495.589v5.74l-4.7-2.714A2.126,2.126,0,0,1,500.477,497v-4.716Z" transform="translate(-500.477 -475.227)" fill="#fffeff"/>
          <g id="Grupo_1105928" data-name="Grupo 1105928" transform="translate(0.001)">
            <path id="Trazado_891238" data-name="Trazado 891238" d="M501.5,469.059c-.565-.326-1.024-.132-1.024.433v2.972a2.125,2.125,0,0,0,1.024,1.616l26.391,15.237V484.3Z" transform="translate(-500.478 -468.901)" fill="#fffeff"/>
            <path id="Trazado_891239" data-name="Trazado 891239" d="M545.053,494.043a2.125,2.125,0,0,1,1.024,1.616v2.972c0,.565-.459.759-1.024.433l-6.1-3.523v-5.02Z" transform="translate(-510.887 -474.751)" fill="#fffeff"/>
          </g>
          <path id="Trazado_891240" data-name="Trazado 891240" d="M506.2,487.547v5.587l-5.726-3.307v-5.586Z" transform="translate(-500.477 -473.051)" fill="#fffeff"/>
          <path id="Trazado_891241" data-name="Trazado 891241" d="M514.294,492.218V497.8l-5.583-3.223v-5.586Z" transform="translate(-502.705 -474.338)" fill="#fffeff"/>
          <path id="Trazado_891242" data-name="Trazado 891242" d="M522.335,496.861v5.586l-5.586-3.225v-5.586Z" transform="translate(-504.88 -475.593)" fill="#fffeff"/>
          <path id="Trazado_891243" data-name="Trazado 891243" d="M530.374,501.5v5.586l-5.583-3.223v-5.586Z" transform="translate(-507.055 -476.85)" fill="#fffeff"/>
          <path id="Trazado_891244" data-name="Trazado 891244" d="M538.415,506.145v5.586l-5.586-3.225v-5.587Z" transform="translate(-509.23 -478.105)" fill="#fffeff"/>
        </g>
      </g>
      <g id="Grupo_1105932" data-name="Grupo 1105932" transform="translate(40.107 5.629)">
        <path id="Trazado_891245" data-name="Trazado 891245" d="M529.012,414.645l.9-.533a1.882,1.882,0,0,1,1.9.209l26.065,15.049.412,1.141L553.985,433v12.223a1.389,1.389,0,0,1-.576,1.255l-.8.461.023-.29a2.639,2.639,0,0,1-1.131-.378L531.818,434.9a5.143,5.143,0,0,1-2.479-3.911V415.369a2.243,2.243,0,0,1,.023-.3Z" transform="translate(-528.48 -413.938)" fill="#e1edf9"/>
        <path id="Trazado_891246" data-name="Trazado 891246" d="M557.24,431.2l-4.311,2.489v12.223c0,1.369-1.11,1.838-2.479,1.047l-19.688-11.367a5.143,5.143,0,0,1-2.479-3.911V416.058c0-1.369,1.11-1.838,2.479-1.048l26.065,15.049Z" transform="translate(-528.282 -414.124)" fill="#fffeff"/>
        <path id="Trazado_891247" data-name="Trazado 891247" d="M557.24,431.2l-4.311,2.489v12.223c0,1.369-1.11,1.838-2.479,1.047l-19.688-11.367a5.143,5.143,0,0,1-2.479-3.911V416.058c0-1.369,1.11-1.838,2.479-1.048l26.065,15.049Z" transform="translate(-528.282 -414.124)" fill="#bbdaf9"/>
        <g id="Grupo_1105931" data-name="Grupo 1105931" transform="translate(2.686 5.48)">
          <path id="Trazado_891248" data-name="Trazado 891248" d="M532.506,422.705l18.191,10.5c.3.173.542.07.542-.229v-.087a1.125,1.125,0,0,0-.542-.855l-18.191-10.5c-.3-.173-.542-.07-.542.229v.088A1.125,1.125,0,0,0,532.506,422.705Z" transform="translate(-531.964 -421.45)" fill="#fa4f47"/>
          <path id="Trazado_891249" data-name="Trazado 891249" d="M532.506,430.026l18.191,10.5c.3.173.542.07.542-.229v-.087a1.125,1.125,0,0,0-.542-.855l-18.191-10.5c-.3-.173-.542-.07-.542.229v.088A1.124,1.124,0,0,0,532.506,430.026Z" transform="translate(-531.964 -423.431)" fill="#fa4f47"/>
          <path id="Trazado_891250" data-name="Trazado 891250" d="M532.506,437.348l18.191,10.5c.3.173.542.07.542-.229v-.088a1.125,1.125,0,0,0-.542-.855l-18.191-10.5c-.3-.173-.542-.07-.542.229v.088A1.125,1.125,0,0,0,532.506,437.348Z" transform="translate(-531.964 -425.412)" fill="#fa4f47"/>
        </g>
      </g>
      <g id="Grupo_1105934" data-name="Grupo 1105934" transform="translate(0 5.453)">
        <path id="Trazado_891251" data-name="Trazado 891251" d="M473.865,414.194l.862-.5L506.7,432.157a5.143,5.143,0,0,1,2.479,3.911v15.624a1.393,1.393,0,0,1-.568,1.252l-.865.5-.348-.4a3.063,3.063,0,0,1-.7-.3l-25.6-14.78a5.143,5.143,0,0,1-2.479-3.911V421.827l-3.695-6.4Z" transform="translate(-473.452 -413.696)" fill="#e1edf9"/>
        <path id="Trazado_891252" data-name="Trazado 891252" d="M473.3,415.044l4.311,7.467v12.223a5.143,5.143,0,0,0,2.479,3.911l25.6,14.78c1.369.791,2.479.322,2.479-1.047V436.752a5.142,5.142,0,0,0-2.479-3.91l-31.977-18.462Z" transform="translate(-473.299 -413.881)" fill="#fffeff"/>
        <path id="Trazado_891253" data-name="Trazado 891253" d="M473.3,415.044l4.311,7.467v12.223a5.143,5.143,0,0,0,2.479,3.911l25.6,14.78c1.369.791,2.479.322,2.479-1.047V436.752a5.142,5.142,0,0,0-2.479-3.91l-31.977-18.462Z" transform="translate(-473.299 -413.881)" fill="#bbdaf9"/>
        <g id="Grupo_1105933" data-name="Grupo 1105933" transform="translate(7.016 8.559)">
          <path id="Trazado_891254" data-name="Trazado 891254" d="M483.459,426.684l24.1,13.916c.3.173.542.07.542-.229v-.088a1.125,1.125,0,0,0-.542-.855l-24.1-13.916c-.3-.173-.542-.07-.542.229v.088A1.123,1.123,0,0,0,483.459,426.684Z" transform="translate(-482.917 -425.429)" fill="#0098ca"/>
          <path id="Trazado_891255" data-name="Trazado 891255" d="M483.459,434.006l24.1,13.916c.3.173.542.07.542-.229v-.088a1.125,1.125,0,0,0-.542-.855l-24.1-13.916c-.3-.173-.542-.07-.542.229v.088A1.123,1.123,0,0,0,483.459,434.006Z" transform="translate(-482.917 -427.41)" fill="#0098ca"/>
          <path id="Trazado_891256" data-name="Trazado 891256" d="M483.459,441.327l24.1,13.916c.3.173.542.07.542-.229v-.088a1.125,1.125,0,0,0-.542-.855l-24.1-13.916c-.3-.173-.542-.07-.542.229v.087A1.122,1.122,0,0,0,483.459,441.327Z" transform="translate(-482.917 -429.391)" fill="#0098ca"/>
        </g>
      </g>
      <g id="Grupo_1105940" data-name="Grupo 1105940" transform="translate(16.955 63.333)">
        <g id="Grupo_1105939" data-name="Grupo 1105939">
          <path id="Trazado_891257" data-name="Trazado 891257" d="M542.752,500.458a1.82,1.82,0,0,1-.37.042.647.647,0,0,0-.549.36l-1.406,2.737-.285.56-1.2-2.251-.539-1a2.884,2.884,0,0,0,.306-1.511,14.415,14.415,0,0,1,.106-2.473.637.637,0,0,1,.2-.4c.7-.708,3.413-3.424,3.572-3.455a.716.716,0,0,1,.433.042.377.377,0,0,1,.127.127.448.448,0,0,1,0,.391,14.717,14.717,0,0,1-1.363,2.209l.042.031a12.367,12.367,0,0,1,1.289,1.088,1.887,1.887,0,0,1,.454.634C543.672,498.122,543.312,500.373,542.752,500.458Z" transform="translate(-507.867 -493.045)" fill="#fec9c9"/>
          <g id="Grupo_1105935" data-name="Grupo 1105935" transform="translate(30.531)" opacity="0.15">
            <path id="Trazado_891258" data-name="Trazado 891258" d="M543.016,493.1l-3.5,4.037V501.7l-.581.2-.539-1a2.884,2.884,0,0,0,.306-1.511,14.415,14.415,0,0,1,.106-2.473.638.638,0,0,1,.2-.4c.7-.708,3.413-3.424,3.572-3.455A.716.716,0,0,1,543.016,493.1Z" transform="translate(-538.398 -493.045)" fill="#cf3838"/>
          </g>
          <path id="Trazado_891259" data-name="Trazado 891259" d="M514.917,578.981a2.788,2.788,0,0,0,1.76.745,1.168,1.168,0,0,0,.321-.044c.816-.233,5.1-2.3,5.418-3a7.047,7.047,0,0,0,.642-2.768,1.024,1.024,0,0,0-.934-.377,16.981,16.981,0,0,1-4.019,1.077,1.44,1.44,0,0,0-.657.155,8.994,8.994,0,0,0-2.258,1.8S514.651,578.7,514.917,578.981Z" transform="translate(-501.494 -514.816)" fill="#110812"/>
          <path id="Trazado_891260" data-name="Trazado 891260" d="M503.227,572.9a.371.371,0,0,0,.034.21,1.508,1.508,0,0,0,1.288.919,4.889,4.889,0,0,0,1.355-.092,3.9,3.9,0,0,0,1.343-.675c.487-.351,1.217-1.579,1.989-2.1s2.159-1.495,2.159-1.495a5.472,5.472,0,0,0-.1-.941,8.153,8.153,0,0,0-2.583.115c-.369.111-1.993.974-2.491,1.244l-.147.077-2.6.915Z" transform="translate(-498.35 -513.501)" fill="#110812"/>
          <path id="Trazado_891261" data-name="Trazado 891261" d="M499.654,540.978c.088.443,2.6,2.277,2.6,2.277l.229-.472.742-1.517-1.712-4.432-1.3.218-.365.369S499.562,540.532,499.654,540.978Z" transform="translate(-497.38 -504.892)" fill="#fec9c9"/>
          <g id="Grupo_1105936" data-name="Grupo 1105936" transform="translate(2.256 31.942)" opacity="0.15">
            <path id="Trazado_891262" data-name="Trazado 891262" d="M499.654,540.978c.088.443,2.6,2.277,2.6,2.277l.229-.472.742-1.517-1.712-4.432-1.3.218-.365.369S499.562,540.532,499.654,540.978Z" transform="translate(-499.636 -536.834)" fill="#cf3838"/>
          </g>
          <path id="Trazado_891263" data-name="Trazado 891263" d="M500.993,515.5a12.174,12.174,0,0,0-1.163,4.639,23.484,23.484,0,0,0,.961,6.2c.243.888.476,1.649.634,2.113.032.127.074.233.095.317a.6.6,0,0,1,.074.222.3.3,0,0,1,.01.095.923.923,0,0,1-.549.772,2.393,2.393,0,0,1-.634.243,3.056,3.056,0,0,1-2.029-.244,1.011,1.011,0,0,1-.549-.708s-1.543-8.6-1.268-10.535,3.35-9.764,3.984-10.335a4.01,4.01,0,0,1,.687-.507,2.622,2.622,0,0,1,.56-.254c.01-.01.01,6.531.01,6.531A10.09,10.09,0,0,0,500.993,515.5Z" transform="translate(-496.543 -496.962)" fill="#ffb037"/>
          <path id="Trazado_891264" data-name="Trazado 891264" d="M516.451,550.939l-.54,14.655a1.118,1.118,0,0,1-.659.906,2.626,2.626,0,0,1-.836.3,3.641,3.641,0,0,1-1.849-.1,2.385,2.385,0,0,1-.475-.214,1.12,1.12,0,0,1-.651-.912l.063-14.487-3.2-8.478c-.4,2.175-1.083,6.04-1.172,7.138-.112,1.574-.05,11.371-.05,11.371a1.185,1.185,0,0,1-.67.916,2.957,2.957,0,0,1-.709.261,3.655,3.655,0,0,1-1.818-.029,2.4,2.4,0,0,1-.633-.246,1.148,1.148,0,0,1-.651-.922s-.263-10.051-.186-10.6a40.984,40.984,0,0,0,.273-4.532c.053-2.483-.414-9.322-.414-9.322a8.3,8.3,0,0,1,.436-3.105c.2-.7.4-1.193.4-1.193l9.135,1.382,2.323.348C516.391,540.308,516.451,550.939,516.451,550.939Z" transform="translate(-498.086 -503.677)" fill="#673a71"/>
          <path id="Trazado_891265" data-name="Trazado 891265" d="M504,562.743a2.4,2.4,0,0,1-.634-.243,1.146,1.146,0,0,1-.655-.919s-.306-10.05-.233-10.6a40.866,40.866,0,0,0,.254-4.533c.042-2.483-.454-9.32-.454-9.32a8.307,8.307,0,0,1,.422-3.107l1.289,1.606a8.766,8.766,0,0,0-.158,4.47C504.342,542.422,504.056,559.826,504,562.743Z" transform="translate(-498.086 -504.131)" fill="url(#linear-gradient)"/>
          <path id="Trazado_891266" data-name="Trazado 891266" d="M515.63,516.472c-.095.391-.211.771-.327,1.141a31.448,31.448,0,0,0-1.057,3.2c-.339,1.976.919,6.457.867,7.238-.032.528-.645,1.2-2.5,1.575a18.122,18.122,0,0,1-3.582.254,12.625,12.625,0,0,1-6.1-1.427,4.979,4.979,0,0,1-.835-.549s.085-.624.2-1.564c.169-1.437.412-3.625.5-5.527a29.437,29.437,0,0,0-.3-5.315c-.116-1.015-.254-2.04-.349-3.128a8.071,8.071,0,0,1,.993-4.576c.095-.158.158-.254.169-.275a2.88,2.88,0,0,1,.422.01,23.713,23.713,0,0,1,3.477.391,19.281,19.281,0,0,1,2.832.729,14.018,14.018,0,0,1,4.935,2.663,4.551,4.551,0,0,1,.729,1.374A6.971,6.971,0,0,1,515.63,516.472Z" transform="translate(-498.044 -496.96)" fill="#f99f27"/>
          <path id="Trazado_891267" data-name="Trazado 891267" d="M535.156,505.529a1.274,1.274,0,0,1-.127.6c-.031.042-.052.085-.085.127-.687,1.046-5.749,8.707-6.383,9.119s-7.44.813-9.574.867c-.148.011-.275.011-.37.011-1.416,0-2.462-.2-2.8-2.156a6.523,6.523,0,0,1-.095-.74,3.134,3.134,0,0,1,1.511-2.864,5.031,5.031,0,0,1,.708-.412,1.409,1.409,0,0,1,.719-.137,1.28,1.28,0,0,1,.518.127,10.494,10.494,0,0,0,4.544.972,7.213,7.213,0,0,0,2.727-.581c.021-.011,5.262-7.524,5.262-7.524.254-.539.909-.655,1.67-.212a3.666,3.666,0,0,1,1.046.94A3.257,3.257,0,0,1,535.156,505.529Z" transform="translate(-501.73 -495.591)" fill="#ffb037"/>
          <g id="Grupo_1105937" data-name="Grupo 1105937" transform="translate(10.737 0.248)" opacity="0.25">
            <path id="Trazado_891268" data-name="Trazado 891268" d="M511.262,503.855a1.261,1.261,0,0,0,.328-.055c.037-.015.107-.044.192-.085a2.457,2.457,0,0,0,1.362-1.653l.041-.17a2.494,2.494,0,0,0,.055-.775,3.7,3.7,0,0,1-.007-.457c.045-.893.454-1.022.764-1.081s.369.9.369.9l.428-.136.063-1.387a.61.61,0,0,1,.144-.391c.336-.384,1.517-.631,1.513-2.115,0-.675-.72-3.034-4.307-3.07,1.133.586,3.126,1.834,2.151,3.011a7.841,7.841,0,0,0-1.672,4.823A3.083,3.083,0,0,1,511.262,503.855Z" transform="translate(-511.262 -493.384)" fill="#bd221e"/>
          </g>
          <path id="Trazado_891269" data-name="Trazado 891269" d="M502.229,507.538a3.106,3.106,0,0,0-.411-.029,3.269,3.269,0,0,0-.565.264,3.855,3.855,0,0,0-.693.508c-.634.57-3.709,8.411-3.984,10.335s1.268,10.535,1.268,10.535a1.016,1.016,0,0,0,.549.708,2.842,2.842,0,0,0,1.289.317c-.486-2.113-2.251-9.817-2.177-11.328.063-1.323,2.353-6.873,3.5-9.57a7.9,7.9,0,0,0-.357,3.092c.095,1.088.233,2.113.349,3.128a29.447,29.447,0,0,1,.3,5.315c-.085,1.9-.328,4.09-.5,5.527-.116.94-.2,1.564-.2,1.564a4.979,4.979,0,0,0,.835.549,43.569,43.569,0,0,0-.169-14.614,9.236,9.236,0,0,1,.451-4.837c.246-.7,5.165.475,5.165.475l-1.166-1.56A23.971,23.971,0,0,0,502.229,507.538Z" transform="translate(-496.543 -496.958)" fill="url(#linear-gradient-2)"/>
          <path id="Trazado_891270" data-name="Trazado 891270" d="M537.363,502.729s-3.815,7.588-6.932,7.735c.021-.011,5.262-7.524,5.262-7.524C535.946,502.4,536.6,502.284,537.363,502.729Z" transform="translate(-505.712 -495.591)" fill="url(#linear-gradient-3)"/>
          <path id="Trazado_891271" data-name="Trazado 891271" d="M528.6,519.7c-.634.412-7.439.813-9.574.867-.148.011-.275.011-.37.011-1.416,0-2.462-.2-2.8-2.155C516.195,518.5,523.941,520.32,528.6,519.7Z" transform="translate(-501.769 -499.91)" fill="url(#linear-gradient-4)"/>
          <path id="Trazado_891272" data-name="Trazado 891272" d="M514.884,554.8l-.069,15.7a2.388,2.388,0,0,1-.475-.214,1.119,1.119,0,0,1-.651-.912l.064-14.487-3.2-8.478Z" transform="translate(-500.334 -507.484)" fill="url(#linear-gradient-5)"/>
          <path id="Trazado_891273" data-name="Trazado 891273" d="M514.666,499.529c0,.01,0,.095-.01.243a20.663,20.663,0,0,1-.486,3.8,2.476,2.476,0,0,1-1.564,1.321.286.286,0,0,0-.2.285c.053,1.046.085,1.575.106,1.659a4.1,4.1,0,0,1-1.088.443,2.108,2.108,0,0,1-.518.063h-.042a5.6,5.6,0,0,1-2.727-.539.8.8,0,0,1-.476-.7c0,.095-.01.179-.021-.222,0-.328,0-.666-.01-.961,0-.063,1.205-1.088,2.621-2.23,1.163-.93,2.463-1.944,3.35-2.568.052-.042.116-.085.158-.116a6.963,6.963,0,0,1,.729-.465C514.613,499.486,514.677,499.476,514.666,499.529Z" transform="translate(-499.542 -494.79)" fill="#fec9c9"/>
          <path id="Trazado_891274" data-name="Trazado 891274" d="M514.883,496.449a1.893,1.893,0,0,1-.877,1.67,3.024,3.024,0,0,0-.634.443.623.623,0,0,0-.148.391l-.063,1.395-.423.137s-.052-.972-.37-.909-.718.19-.772,1.078c0,.179,0,.327.01.465a2.4,2.4,0,0,1-.053.772l-.042.169a2.471,2.471,0,0,1-1.363,1.659,1.171,1.171,0,0,0-.19.085,1.5,1.5,0,0,1-.328.053,5.5,5.5,0,0,1-2.652-.581,13.559,13.559,0,0,1-.9-2.018c-.106-.528-.613-1.68-.74-2.188-.306-1.3-.243-4.988,3.646-5.569a9.6,9.6,0,0,1,1.585-.116c3.3.031,4.174,2.018,4.291,2.864A.723.723,0,0,1,514.883,496.449Z" transform="translate(-498.893 -493.136)" fill="#110812"/>
          <g id="Grupo_1105938" data-name="Grupo 1105938" transform="translate(6.335 0.245)" opacity="0.15">
            <path id="Trazado_891275" data-name="Trazado 891275" d="M514.862,496.247c-.74.169-2.156-.264-2.927-.19-1.152.116-2.1,3.245-2.3,4.565a2.742,2.742,0,0,0-.032.422,7.894,7.894,0,0,0,.549,2.673l.063,1.976a5.6,5.6,0,0,1-2.727-.539.8.8,0,0,1-.476-.7c0,.095-.01.179-.021-.222,0-.328,0-.666-.01-.961a13.567,13.567,0,0,1-.9-2.018c-.106-.528-.613-1.68-.74-2.188-.306-1.3-.243-4.988,3.646-5.569a9.587,9.587,0,0,1,1.585-.116C513.868,493.415,514.746,495.4,514.862,496.247Z" transform="translate(-505.228 -493.381)" fill="#cf3838"/>
          </g>
        </g>
      </g>
    </g>
  </g>
</svg>
