<svg xmlns="http://www.w3.org/2000/svg" xmlns:xlink="http://www.w3.org/1999/xlink" width="114.213" height="96.873" viewBox="0 0 114.213 96.873">
  <defs>
    <linearGradient id="linear-gradient" x1="0.006" y1="0.791" x2="1.113" y2="0.198" gradientUnits="objectBoundingBox">
      <stop offset="0.016" stop-color="#ebffff"/>
      <stop offset="1" stop-color="#fff"/>
    </linearGradient>
    <linearGradient id="linear-gradient-2" x1="-448.423" y1="0.5" x2="-447.422" y2="0.5" gradientUnits="objectBoundingBox">
      <stop offset="0.005" stop-color="#ebeaf0"/>
      <stop offset="0.989" stop-color="#e5e4ec"/>
    </linearGradient>
    <linearGradient id="linear-gradient-3" x1="-411.772" y1="0.5" x2="-410.772" y2="0.5" xlink:href="#linear-gradient-2"/>
    <linearGradient id="linear-gradient-4" x1="-897.904" y1="0.534" x2="-898.854" y2="0.466" xlink:href="#linear-gradient-2"/>
    <linearGradient id="linear-gradient-5" x1="-253.957" y1="0.586" x2="-254.914" y2="0.421" xlink:href="#linear-gradient-2"/>
    <linearGradient id="linear-gradient-6" x1="-901.45" y1="0.534" x2="-902.399" y2="0.466" xlink:href="#linear-gradient-2"/>
    <linearGradient id="linear-gradient-7" x1="1.022" y1="0.537" x2="-0.022" y2="0.463" xlink:href="#linear-gradient-2"/>
    <linearGradient id="linear-gradient-8" x1="1.022" y1="0.537" x2="-0.022" y2="0.463" xlink:href="#linear-gradient-2"/>
  </defs>
  <g id="Grupo_1106036" data-name="Grupo 1106036" transform="translate(-584.147 -69.191)">
    <path id="Trazado_891057" data-name="Trazado 891057" d="M698.367,131.386v5.8a3.939,3.939,0,0,1-2.324,3.241l-39.077,22.555a12.44,12.44,0,0,1-11.223,0L586.5,128.787c-1.55-.9-2.324-2.067-2.324-3.241v-5.907l5.891.608,35.511-20.489a12.376,12.376,0,0,1,11.215,0l53.341,30.778Z" transform="translate(-0.007 -6.475)" fill="#784b86"/>
    <g id="Grupo_1105867" data-name="Grupo 1105867" transform="translate(584.17 113.162)" opacity="0.5">
      <path id="Trazado_891058" data-name="Trazado 891058" d="M645.741,155.658v13.365L586.5,134.828c-1.55-.9-2.324-2.067-2.324-3.241v-5.907l5.891.608Z" transform="translate(-584.176 -125.679)" fill="#421d46"/>
    </g>
    <path id="Trazado_891059" data-name="Trazado 891059" d="M696.018,132.972l-39.079,22.552a12.4,12.4,0,0,1-11.219,0l-59.249-34.195c-3.1-1.789-3.1-4.689,0-6.478L625.549,92.3a12.4,12.4,0,0,1,11.22,0l59.249,34.195C699.116,128.283,699.116,131.182,696.018,132.972Z" transform="translate(0 -4.823)" fill="#673a71"/>
    <path id="Trazado_891060" data-name="Trazado 891060" d="M697.323,130.033c0,.539-.536,1.168-1.427,1.685L674.949,143.8l-.327.191-17.805,10.276a10.615,10.615,0,0,1-9.423,0l-19.182-11.074-6.286-3.627-4.931-2.847-6.4-3.691-22.449-12.957c-.9-.514-1.427-1.143-1.427-1.682s.532-1.168,1.427-1.682l39.079-22.553a7.509,7.509,0,0,1,1.811-.726,11.063,11.063,0,0,1,2.9-.374,11.233,11.233,0,0,1,2.767.338,7.609,7.609,0,0,1,1.945.762L695.9,128.351C696.787,128.868,697.323,129.5,697.323,130.033Z" transform="translate(-0.57 -5.288)" fill="#fffeff"/>
    <path id="Trazado_891061" data-name="Trazado 891061" d="M652.293,154.9a9.071,9.071,0,0,1-4.381-1.014L628.73,142.81l-6.286-3.627-33.778-19.495c-.8-.462-1.1-.915-1.1-1.108s.291-.646,1.095-1.108l39.08-22.554a6.812,6.812,0,0,1,1.651-.66,10.468,10.468,0,0,1,2.727-.352,10.629,10.629,0,0,1,2.6.318,6.971,6.971,0,0,1,1.778.694l59.25,34.195c.8.463,1.1.926,1.1,1.108s-.292.645-1.1,1.113l-20.946,12.083-.329.191-17.8,10.274A9.048,9.048,0,0,1,652.293,154.9Z" transform="translate(-0.759 -5.477)" fill="#fffeff"/>
    <g id="Grupo_1105869" data-name="Grupo 1105869" transform="translate(591.218 69.191)">
      <path id="Trazado_891062" data-name="Trazado 891062" d="M636.955,69.97l-.979-.566a2.224,2.224,0,0,0-2.264.239l-39.993,23.09-.488,1.351,5.1,2.946v17.155a1.65,1.65,0,0,0,.666,1.477l1,.576.327-.426a3.511,3.511,0,0,0,.946-.388l32.446-18.732a6.085,6.085,0,0,0,2.934-4.628V70.883a2.467,2.467,0,0,0-.047-.483Z" transform="translate(-593.231 -69.191)" fill="url(#linear-gradient)"/>
      <path id="Trazado_891063" data-name="Trazado 891063" d="M636.955,69.97l-.979-.566a2.224,2.224,0,0,0-2.264.239l-39.993,23.09-.488,1.351,5.1,2.946v17.155a1.65,1.65,0,0,0,.666,1.477l1,.576.327-.426a3.511,3.511,0,0,0,.946-.388l32.446-18.732a6.085,6.085,0,0,0,2.934-4.628V70.883a2.467,2.467,0,0,0-.047-.483Z" transform="translate(-593.231 -69.191)" fill="#bbdaf9"/>
      <path id="Trazado_891064" data-name="Trazado 891064" d="M594.536,94.84l5.1,2.946V114.94c0,1.621,1.314,2.176,2.934,1.24l32.446-18.732a6.085,6.085,0,0,0,2.934-4.628V71.64c0-1.621-1.314-2.176-2.934-1.24L595.024,93.49C594.794,94.126,594.766,94.2,594.536,94.84Z" transform="translate(-593.52 -69.358)" fill="#e1edf9"/>
      <g id="Grupo_1105868" data-name="Grupo 1105868" transform="translate(7.852 4.396)">
        <path id="Trazado_891065" data-name="Trazado 891065" d="M637.444,76.333l-33.433,19.3c-.383.221-.694.09-.694-.293a1.439,1.439,0,0,1,.694-1.094l33.433-19.3c.383-.221.694-.09.694.293A1.438,1.438,0,0,1,637.444,76.333Z" transform="translate(-603.318 -74.839)" fill="#784b86"/>
        <path id="Trazado_891066" data-name="Trazado 891066" d="M637.444,84.452l-33.433,19.3c-.383.221-.694.09-.694-.293a1.438,1.438,0,0,1,.694-1.094l33.433-19.3c.383-.221.694-.09.694.293A1.438,1.438,0,0,1,637.444,84.452Z" transform="translate(-603.318 -76.638)" fill="#784b86"/>
        <path id="Trazado_891067" data-name="Trazado 891067" d="M637.444,92.571l-33.433,19.3c-.383.221-.694.09-.694-.293a1.438,1.438,0,0,1,.694-1.094l33.433-19.3c.383-.221.694-.09.694.293A1.435,1.435,0,0,1,637.444,92.571Z" transform="translate(-603.318 -78.437)" fill="#784b86"/>
        <path id="Trazado_891068" data-name="Trazado 891068" d="M637.444,100.691l-33.433,19.3c-.383.221-.694.09-.694-.293a1.438,1.438,0,0,1,.694-1.094l33.433-19.3c.383-.221.694-.09.694.293A1.438,1.438,0,0,1,637.444,100.691Z" transform="translate(-603.318 -80.237)" fill="#784b86"/>
      </g>
    </g>
    <g id="Grupo_1105871" data-name="Grupo 1105871" transform="translate(623.258 72.843)">
      <path id="Trazado_891069" data-name="Trazado 891069" d="M676.186,74.471l-1.021-.589-37.84,21.847a6.085,6.085,0,0,0-2.934,4.628v18.49a1.647,1.647,0,0,0,.672,1.481l1.024.592.412-.476a3.64,3.64,0,0,0,.825-.356l30.293-17.49a6.085,6.085,0,0,0,2.934-4.628V83.5l4.372-7.572Z" transform="translate(-634.391 -73.882)" fill="#fffeff"/>
      <path id="Trazado_891070" data-name="Trazado 891070" d="M676.186,74.471l-1.021-.589-37.84,21.847a6.085,6.085,0,0,0-2.934,4.628v18.49a1.647,1.647,0,0,0,.672,1.481l1.024.592.412-.476a3.64,3.64,0,0,0,.825-.356l30.293-17.49a6.085,6.085,0,0,0,2.934-4.628V83.5l4.372-7.572Z" transform="translate(-634.391 -73.882)" fill="#bbdaf9"/>
      <path id="Trazado_891071" data-name="Trazado 891071" d="M676.965,75.425l-5.1,8.836V98.725a6.086,6.086,0,0,1-2.934,4.628l-30.294,17.49c-1.621.936-2.934.381-2.934-1.24v-18.49a6.086,6.086,0,0,1,2.934-4.628l37.841-21.848C676.706,75.009,676.735,75.054,676.965,75.425Z" transform="translate(-634.682 -74.05)" fill="#e1edf9"/>
      <g id="Grupo_1105870" data-name="Grupo 1105870" transform="translate(4.176 10.127)">
        <path id="Trazado_891072" data-name="Trazado 891072" d="M668.92,88.378,640.4,104.845c-.354.2-.641.083-.641-.271v-.1a1.331,1.331,0,0,1,.641-1.012L668.92,86.992c.354-.2.641-.083.641.271v.1A1.331,1.331,0,0,1,668.92,88.378Z" transform="translate(-639.756 -86.892)" fill="#784b86"/>
        <path id="Trazado_891073" data-name="Trazado 891073" d="M668.92,96.5,640.4,112.964c-.354.2-.641.083-.641-.271v-.1a1.331,1.331,0,0,1,.641-1.012L668.92,95.111c.354-.2.641-.083.641.271v.1A1.33,1.33,0,0,1,668.92,96.5Z" transform="translate(-639.756 -88.691)" fill="#784b86"/>
        <path id="Trazado_891074" data-name="Trazado 891074" d="M668.92,104.616,640.4,121.083c-.354.2-.641.083-.641-.271v-.1a1.331,1.331,0,0,1,.641-1.012L668.92,103.23c.354-.2.641-.083.641.271v.1A1.328,1.328,0,0,1,668.92,104.616Z" transform="translate(-639.756 -90.49)" fill="#784b86"/>
      </g>
    </g>
    <g id="Grupo_1105882" data-name="Grupo 1105882" transform="translate(609.854 99.565)">
      <g id="Grupo_1105872" data-name="Grupo 1105872" transform="translate(0 51.291)" opacity="0.1">
        <path id="Trazado_891075" data-name="Trazado 891075" d="M639.655,176.33c5.143,2.97,5.143,7.784,0,10.754s-13.482,2.97-18.626,0-5.143-7.784,0-10.754S634.512,173.361,639.655,176.33Z" transform="translate(-617.172 -174.103)" fill="#607080"/>
      </g>
      <g id="Grupo_1105881" data-name="Grupo 1105881" transform="translate(1.329 0)">
        <path id="Trazado_891076" data-name="Trazado 891076" d="M634.11,189.768c.146.342,1.377.39,2.629.325a15.826,15.826,0,0,0,2.672-.325c.715-.222,5.134-4.3,5.313-4.635s-.342-1.713-.342-1.713l-2.331-.233-2.071-.206s-2.282,2.7-2.846,3.2S633.834,189.112,634.11,189.768Z" transform="translate(-622.25 -124.78)" fill="#110812"/>
        <path id="Trazado_891077" data-name="Trazado 891077" d="M624.239,180.7c.135.39.309.677.461.732.434.146,4.776-3.378,5.2-4.006s2.851-.916,3-1.306-.336-1.578-.336-1.578a13.391,13.391,0,0,0-1.924-.726c-1.046-.3-2.173-.434-2.418.282-.483,1.4-3.572,3.665-4.055,4.391A3.025,3.025,0,0,0,624.239,180.7Z" transform="translate(-620.011 -122.695)" fill="#110812"/>
        <path id="Trazado_891078" data-name="Trazado 891078" d="M637.494,190.152a15.822,15.822,0,0,0,2.672-.325c.715-.222,5.134-4.3,5.313-4.635s-.342-1.713-.342-1.713l-2.331-.233c-.537,1.284-1.778,4.049-2.97,5.106A23.99,23.99,0,0,1,637.494,190.152Z" transform="translate(-623.004 -124.838)" fill="url(#linear-gradient-2)"/>
        <path id="Trazado_891079" data-name="Trazado 891079" d="M624.311,180.771c.135.39.309.677.461.732.434.146,4.776-3.378,5.2-4.006s2.851-.916,3-1.306-.336-1.578-.336-1.578a13.389,13.389,0,0,0-1.924-.726,7.545,7.545,0,0,1-1.767,2.981A57.793,57.793,0,0,1,624.311,180.771Z" transform="translate(-620.083 -122.764)" fill="url(#linear-gradient-3)"/>
        <path id="Trazado_891080" data-name="Trazado 891080" d="M655.231,150.936c-1.528,2.373-10.375,8.847-10.755,9.135-.372.272-.768,13.477-.736,14.237a1.429,1.429,0,0,1-.845,1.225,4.209,4.209,0,0,1-1.8.489,3.11,3.11,0,0,1-.466-.008,4.276,4.276,0,0,1-1.846-.481,1.446,1.446,0,0,1-.861-1.194s.209-16.439.613-17.812c.4-1.319,3.505-5.514,3.7-5.777-.272.093-3.776,1.334-5.886,2.327a4.9,4.9,0,0,0-1.558.961c-.535.853-.628,13.717-.628,13.717a1.44,1.44,0,0,1-.845,1.186,3.989,3.989,0,0,1-1.094.4,4.822,4.822,0,0,1-1.566.054,3.923,3.923,0,0,1-1.458-.45,1.451,1.451,0,0,1-.853-1.186s-.008-.589-.008-1.558c0-3.737.085-13.073.853-14.842.977-2.218,13.811-8.414,13.811-8.414l8.166,2.039.163.039,1.644-.481.783-.225s.31.442.683,1.124a11.556,11.556,0,0,1,.8,1.744A4.383,4.383,0,0,1,655.231,150.936Z" transform="translate(-620.975 -115.907)" fill="#673a71"/>
        <g id="Grupo_1105873" data-name="Grupo 1105873" transform="translate(7.363 27.034)" opacity="0.5">
          <path id="Trazado_891081" data-name="Trazado 891081" d="M656.1,146.446l-.861.736-2.373,2.039-10.615,10.6-1.621,16.191a4.276,4.276,0,0,1-1.846-.481,1.446,1.446,0,0,1-.861-1.194s.209-16.439.613-17.812c.4-1.319,3.505-5.514,3.7-5.777-.272.093-3.776,1.334-5.885,2.327l-3.993.466-1.7,15.85a3.926,3.926,0,0,1-1.458-.45,1.451,1.451,0,0,1-.853-1.186s-.008-.589-.008-1.558c0-3.737.085-13.073.853-14.842.977-2.218,13.811-8.414,13.811-8.414l8.166,2.039.163.039,1.644-.481,1.466.9Z" transform="translate(-628.338 -142.941)" fill="#582f5c"/>
        </g>
        <path id="Trazado_891082" data-name="Trazado 891082" d="M641.656,164.28v-.69l11.141-6.437v.69Z" transform="translate(-623.926 -119.056)" fill="#4cc1ec"/>
        <path id="Trazado_891083" data-name="Trazado 891083" d="M622.157,154.163v.691l15.178,8.763v-.69Z" transform="translate(-619.605 -118.394)" fill="#0098ca"/>
        <path id="Trazado_891084" data-name="Trazado 891084" d="M637.335,161.1l-7.589-4.382-7.589-4.382L633.3,145.9l15.178,8.763Z" transform="translate(-619.605 -116.562)" fill="#26addb"/>
        <path id="Trazado_891085" data-name="Trazado 891085" d="M645.11,134.1c-.458.458-5.731,8.654-5.731,8.654l-1.178-1.249-1.055-1.116-1.326-1.411,5.257-7.7s-.558-7.389.047-9.53,1.66-3.505,2.954-3.582c.008,0,.047.008.116.086a1.529,1.529,0,0,1,.194.419,24.034,24.034,0,0,1,.721,5.9C645.419,131.054,645.567,133.644,645.11,134.1Z" transform="translate(-622.633 -110.418)" fill="#fa4f47"/>
        <path id="Trazado_891086" data-name="Trazado 891086" d="M635.438,145.638a4.14,4.14,0,0,0,2,3.149c1.1.637,2,.259,2-.844a4.14,4.14,0,0,0-2-3.149C636.332,144.157,635.438,144.535,635.438,145.638Z" transform="translate(-622.548 -116.249)" fill="#fa4f47"/>
        <path id="Trazado_891087" data-name="Trazado 891087" d="M635.436,145.635a2.5,2.5,0,0,0,.081.613,4.348,4.348,0,0,0,1.919,2.537,2.322,2.322,0,0,0,.693.276,1.012,1.012,0,0,0,1.3-1.117,3.323,3.323,0,0,0-.5-1.61,4.371,4.371,0,0,0-1.491-1.54C636.33,144.155,635.436,144.534,635.436,145.635Z" transform="translate(-622.548 -116.249)" fill="url(#linear-gradient-4)"/>
        <path id="Trazado_891088" data-name="Trazado 891088" d="M660.581,132.643a17.256,17.256,0,0,1-2.993,8.468,16.007,16.007,0,0,1-3.962.3,9.346,9.346,0,0,1-5.157-1.667,6.243,6.243,0,0,1-2.016-2.3s-.147-4.195-.3-5.412a19.418,19.418,0,0,0-1.908-4.265c-.938-5.6.349-8.134,1.117-9.1a2.531,2.531,0,0,1,.511-.5,14.012,14.012,0,0,1,1.574.3c6.164,1.442,11.973,6.1,11.973,6.1.047.116.086.241.131.364a18.951,18.951,0,0,1,1.047,4.986c.016.217.031.419.039.628A18.254,18.254,0,0,1,660.581,132.643Z" transform="translate(-624.426 -110.417)" fill="#df3128"/>
        <g id="Grupo_1105874" data-name="Grupo 1105874" transform="translate(19.487 7.749)" opacity="0.25">
          <path id="Trazado_891089" data-name="Trazado 891089" d="M648.469,139.747a6.243,6.243,0,0,1-2.016-2.3s-.147-4.195-.3-5.412a19.418,19.418,0,0,0-1.908-4.265c-.938-5.6.349-8.134,1.117-9.1a2.531,2.531,0,0,1,.511-.5,14.015,14.015,0,0,1,1.574.3l-.372.434s-2.388,7.847-1.621,9.111,2.272,3.784,2.272,3.784Z" transform="translate(-643.913 -118.166)" fill="#bd221e"/>
        </g>
        <path id="Trazado_891090" data-name="Trazado 891090" d="M645.774,118.671c4.342.515,13.3,6.114,13.3,6.114l.889.146c-.044-.119-.086-.244-.13-.364,0,0-6.841-5.486-13.547-6.4A2.659,2.659,0,0,0,645.774,118.671Z" transform="translate(-624.839 -110.417)" opacity="0.5" fill="url(#linear-gradient-5)"/>
        <path id="Trazado_891091" data-name="Trazado 891091" d="M661.679,144.385c-.458.458-12.585,4.024-12.585,4.024l-.814-1.256-1.745-2.652-.325-.5,11.507-3.357s-1.225-8.538-.613-10.67c.489-1.691,1.155-2.9,2.063-3.365a1.759,1.759,0,0,1,.76-.217s2.349.915,2.66,7.389S662.137,143.927,661.679,144.385Z" transform="translate(-624.935 -112.241)" fill="#fa4f47"/>
        <path id="Trazado_891092" data-name="Trazado 891092" d="M645.408,150.07a4.14,4.14,0,0,0,2,3.149c1.1.637,2,.258,2-.844a4.14,4.14,0,0,0-2-3.149C646.3,148.589,645.408,148.967,645.408,150.07Z" transform="translate(-624.758 -117.231)" fill="#fa4f47"/>
        <path id="Trazado_891093" data-name="Trazado 891093" d="M645.408,150.07a.9.9,0,0,0,.011.168,4.219,4.219,0,0,0,1.984,2.981c1.122.629,2,.249,2-.845a2.9,2.9,0,0,0-.038-.428,4.336,4.336,0,0,0-1.344-2.266,3.467,3.467,0,0,0-.618-.455C646.3,148.591,645.408,148.964,645.408,150.07Z" transform="translate(-624.758 -117.231)" fill="url(#linear-gradient-6)"/>
        <path id="Trazado_891094" data-name="Trazado 891094" d="M639.433,147.943a1.012,1.012,0,0,1-1.3,1.117,2.111,2.111,0,0,1-.7-.279,4.338,4.338,0,0,1-1.915-2.536,2.469,2.469,0,0,1-.086-.613,1.136,1.136,0,0,1,.4-.954,1.433,1.433,0,0,1,1.605.116,3.712,3.712,0,0,1,.667.5,4.51,4.51,0,0,1,.83,1.047A3.287,3.287,0,0,1,639.433,147.943Z" transform="translate(-622.547 -116.249)" fill="url(#linear-gradient-7)"/>
        <path id="Trazado_891095" data-name="Trazado 891095" d="M649.406,152.377c0,1.094-.884,1.474-1.969.861a4.227,4.227,0,0,1-2.016-3,1.118,1.118,0,0,1-.008-.163,1.046,1.046,0,0,1,.622-1.075s.231-.072.231-.072a1.879,1.879,0,0,1,1.14.3c.1.054.194.117.287.178.109.086.217.17.326.272a4.342,4.342,0,0,1,1.349,2.272A2.672,2.672,0,0,1,649.406,152.377Z" transform="translate(-624.759 -117.232)" fill="url(#linear-gradient-8)"/>
        <path id="Trazado_891096" data-name="Trazado 891096" d="M648.261,152.166c-.566.372-1.357.915-1.93,1.287a5.16,5.16,0,0,1-.714.419c-.272,0-1.21.078-1.916.132a2.26,2.26,0,0,0-1.427.683.846.846,0,0,1-.442.248.958.958,0,0,1-.333,0,1.015,1.015,0,0,1-.442-.178,1.068,1.068,0,0,1-.349-.434l-.194-.481a1.344,1.344,0,0,1,.28-1.427l1.93-1.985a.68.68,0,0,1,.628-.194l.915.217h.047a4.385,4.385,0,0,0,2.6-.558,4.5,4.5,0,0,1,.977,1.256c.023.047.047.093.07.147A3.806,3.806,0,0,1,648.261,152.166Z" transform="translate(-623.652 -117.448)" fill="#fec9c9"/>
        <g id="Grupo_1105875" data-name="Grupo 1105875" transform="translate(16.768 32.447)" opacity="0.15">
          <path id="Trazado_891097" data-name="Trazado 891097" d="M647.959,151.3a7.11,7.11,0,0,1-2.334,1.264,5.636,5.636,0,0,0-2.707.659c-.24.233-.938,1.1-1.419,1.714a1.015,1.015,0,0,1-.442-.178,1.067,1.067,0,0,1-.349-.434l-.194-.481a1.344,1.344,0,0,1,.28-1.427l1.93-1.985a.68.68,0,0,1,.628-.194l.915.217h.047a4.385,4.385,0,0,0,2.6-.558,4.5,4.5,0,0,1,.977,1.256C647.912,151.2,647.936,151.244,647.959,151.3Z" transform="translate(-640.42 -149.895)" fill="#cf3838"/>
        </g>
        <path id="Trazado_891098" data-name="Trazado 891098" d="M638.09,146.426a1.79,1.79,0,0,0-.45,1.186,3.646,3.646,0,0,1-.349,1.535,4.164,4.164,0,0,1-.667.946c-.325.4-1.38.527-1.38.527a8.459,8.459,0,0,0,.411-1.086c.178-.6.256-1.233-.178-1.272-.838-.07-2.691,3.187-2.691,3.187l-.535-.372a.427.427,0,0,0-.07-.055l-.535-.372.613-2.807a1.15,1.15,0,0,1,.644-.806,17.291,17.291,0,0,1,1.775-.705c.062-.016.132-.039.186-.054a4.589,4.589,0,0,0,1.737-1.4,4.1,4.1,0,0,1,1.016.869c.047.054.086.108.124.163A3.759,3.759,0,0,1,638.09,146.426Z" transform="translate(-621.708 -116.337)" fill="#fec9c9"/>
        <g id="Grupo_1105876" data-name="Grupo 1105876" transform="translate(9.938 28.546)" opacity="0.15">
          <path id="Trazado_891099" data-name="Trazado 891099" d="M637.741,145.915a3.294,3.294,0,0,1-1.38.7,4.327,4.327,0,0,0-2.9,1.9c-.481.946-.938,1.846-1.28,2.513l-.535-.372.613-2.807a1.15,1.15,0,0,1,.644-.806,17.277,17.277,0,0,1,1.775-.705c.062-.016.132-.039.186-.054a4.589,4.589,0,0,0,1.737-1.4,4.1,4.1,0,0,1,1.016.869C637.663,145.806,637.7,145.861,637.741,145.915Z" transform="translate(-631.646 -144.884)" fill="#cf3838"/>
        </g>
        <path id="Trazado_891100" data-name="Trazado 891100" d="M634.057,149.589l2.552,10.382-15.178-8.764-2.552-10.382Z" transform="translate(-618.879 -115.438)" fill="#0098ca"/>
        <path id="Trazado_891101" data-name="Trazado 891101" d="M634.47,149.282l-.413.239-15.178-8.763.412-.24Z" transform="translate(-618.879 -115.37)" fill="#26addb"/>
        <path id="Trazado_891102" data-name="Trazado 891102" d="M640.93,162.4l.412-.24-2.551-10.382-.413.239Z" transform="translate(-623.2 -117.865)" fill="#4cc1ec"/>
        <path id="Trazado_891103" data-name="Trazado 891103" d="M655.231,121.229s-.17.325-.473.8c-.233.357-.527.8-.884,1.249a6.947,6.947,0,0,1-2.869,2.4,5.585,5.585,0,0,1-1.117-3.908c.256-1.357,2.047-2.094,3.21-2.419.016-.008.031-.008.047-.016a9.457,9.457,0,0,1,.954-.217l.838.713Z" transform="translate(-625.737 -110.627)" fill="#fec9c9"/>
        <g id="Grupo_1105877" data-name="Grupo 1105877" transform="translate(24.093 8.718)" opacity="0.15">
          <path id="Trazado_891104" data-name="Trazado 891104" d="M653.875,123.343a6.947,6.947,0,0,1-2.869,2.4,5.585,5.585,0,0,1-1.117-3.908c.256-1.357,2.047-2.094,3.21-2.419Z" transform="translate(-649.831 -119.411)" fill="#cf3838"/>
        </g>
        <path id="Trazado_891105" data-name="Trazado 891105" d="M656.2,111.253c-.6,2.109-.977,4.381-1.21,5.629-.76.892-.938.752-.938.752l-.186,1.388s-2.66,2.109-4.427,2.024c-.016,0-.031.008-.047,0a.83.83,0,0,1-.139-.008c-1.357-.2-2.3-6.428-2.133-7.677a5.662,5.662,0,0,1,1.411-3.5,3.5,3.5,0,0,1,1.481-.822C651.937,108.485,655.155,108.577,656.2,111.253Z" transform="translate(-625.133 -108.335)" fill="#fec9c9"/>
        <g id="Grupo_1105878" data-name="Grupo 1105878" transform="translate(21.969 1.531)" opacity="0.15">
          <path id="Trazado_891106" data-name="Trazado 891106" d="M653.161,111.1l-.62,2.094s-.481,7.723-3.1,8.166c-.016,0-.031.008-.047,0a.832.832,0,0,1-.139-.008c-1.357-.2-2.3-6.428-2.133-7.677a5.661,5.661,0,0,1,1.411-3.5Z" transform="translate(-647.102 -110.178)" fill="#cf3838"/>
        </g>
        <path id="Trazado_891107" data-name="Trazado 891107" d="M646.6,112.689c.06.364.1.737.125,1.106.033.477-.076,1.127.271,1.225-.011-.108-.011-.228-.022-.336-.027-.3-.152-2.282.553-2a.336.336,0,0,0,.065.049,1.564,1.564,0,0,0,.483.179,1.116,1.116,0,0,0,.244.027,11.409,11.409,0,0,0,3.279-.325.568.568,0,0,1,.455.293,3.37,3.37,0,0,1,.509,1.843,4.832,4.832,0,0,0,.016,1.372.308.308,0,0,1,.038.022.289.289,0,0,0,.375,0,.644.644,0,0,0,.119-.141c.222-.342-.022-2.006.823-1.772.6.222.943.845.375,2.5a.433.433,0,0,1-.049.092.221.221,0,0,0-.044.081,6.119,6.119,0,0,0-.168,1.073l.406-.011a4.922,4.922,0,0,1,1.073-2.26,5.624,5.624,0,0,0,1.242-2.738,3.724,3.724,0,0,0-.071-1.93,5.356,5.356,0,0,0-1.116-1.491,5.279,5.279,0,0,0-3.914-1.323s-3.025-.119-4.347,1.214a3.72,3.72,0,0,0-.732.976,2.139,2.139,0,0,0-.223.71A4.278,4.278,0,0,0,646.6,112.689Z" transform="translate(-624.967 -108.212)" fill="#110812"/>
        <g id="Grupo_1105879" data-name="Grupo 1105879" transform="translate(13.28 7.749)" opacity="0.25">
          <path id="Trazado_891108" data-name="Trazado 891108" d="M643.593,118.671s-2.163,2.946-1.21,8.506l.357,5-4.529,7.281a3.953,3.953,0,0,0-.659-.5,1.445,1.445,0,0,0-1.613-.116l5.164-7.569s-.558-7.389.047-9.53,1.66-3.505,2.954-3.582c.008,0,.047.008.116.086Z" transform="translate(-635.939 -118.167)" fill="#bd221e"/>
        </g>
        <g id="Grupo_1105880" data-name="Grupo 1105880" transform="translate(21.508 17.736)" opacity="0.25">
          <path id="Trazado_891109" data-name="Trazado 891109" d="M659.179,142.3l-11.243,3.132c-.093-.062-.186-.124-.287-.178a1.886,1.886,0,0,0-1.14-.3l11.275-3.288s-1.225-8.538-.613-10.67Z" transform="translate(-646.509 -130.996)" fill="#bd221e"/>
        </g>
      </g>
    </g>
    <g id="Grupo_1105884" data-name="Grupo 1105884" transform="translate(646.059 105.86)">
      <path id="Trazado_891110" data-name="Trazado 891110" d="M698.337,117.136l-1.07-.631a2.226,2.226,0,0,0-2.25.248l-30.845,17.809-.488,1.351,5.1,2.945v14.464a1.642,1.642,0,0,0,.681,1.485l.94.546-.026-.343a3.119,3.119,0,0,0,1.339-.448l23.3-13.451a6.085,6.085,0,0,0,2.934-4.628v-18.49a2.529,2.529,0,0,0-.027-.361Z" transform="translate(-663.683 -116.298)" fill="#fffeff"/>
      <path id="Trazado_891111" data-name="Trazado 891111" d="M698.337,117.136l-1.07-.631a2.226,2.226,0,0,0-2.25.248l-30.845,17.809-.488,1.351,5.1,2.945v14.464a1.642,1.642,0,0,0,.681,1.485l.94.546-.026-.343a3.119,3.119,0,0,0,1.339-.448l23.3-13.451a6.085,6.085,0,0,0,2.934-4.628v-18.49a2.529,2.529,0,0,0-.027-.361Z" transform="translate(-663.683 -116.298)" fill="#bbdaf9"/>
      <path id="Trazado_891112" data-name="Trazado 891112" d="M664.988,136.676l5.1,2.946v14.464c0,1.621,1.314,2.176,2.934,1.24l23.3-13.451a6.085,6.085,0,0,0,2.934-4.628v-18.49c0-1.621-1.314-2.176-2.934-1.24l-30.845,17.809Z" transform="translate(-663.972 -116.468)" fill="#e1edf9"/>
      <g id="Grupo_1105883" data-name="Grupo 1105883" transform="translate(9.295 6.486)">
        <path id="Trazado_891113" data-name="Trazado 891113" d="M697.793,126.115l-21.527,12.429c-.354.2-.641.083-.641-.271v-.1a1.331,1.331,0,0,1,.641-1.012l21.527-12.428c.354-.2.641-.083.641.271v.1A1.328,1.328,0,0,1,697.793,126.115Z" transform="translate(-675.624 -124.63)" fill="#784b86"/>
        <path id="Trazado_891114" data-name="Trazado 891114" d="M697.793,134.235l-21.527,12.428c-.354.2-.641.083-.641-.271v-.1a1.331,1.331,0,0,1,.641-1.012l21.527-12.428c.354-.2.641-.083.641.271v.1A1.329,1.329,0,0,1,697.793,134.235Z" transform="translate(-675.624 -126.429)" fill="#784b86"/>
        <path id="Trazado_891115" data-name="Trazado 891115" d="M697.793,142.354l-21.527,12.428c-.354.2-.641.083-.641-.271v-.1a1.331,1.331,0,0,1,.641-1.012l21.527-12.428c.354-.2.641-.083.641.271v.1A1.329,1.329,0,0,1,697.793,142.354Z" transform="translate(-675.624 -128.228)" fill="#784b86"/>
      </g>
    </g>
  </g>
</svg>
