<svg xmlns="http://www.w3.org/2000/svg" xmlns:xlink="http://www.w3.org/1999/xlink" width="91.239" height="118.844" viewBox="0 0 91.239 118.844">
  <defs>
    <linearGradient id="linear-gradient" x1="0.503" y1="36.351" x2="0.496" y2="36.835" gradientUnits="objectBoundingBox">
      <stop offset="0.011" stop-color="#00b6ff"/>
      <stop offset="1" stop-color="#18018f"/>
    </linearGradient>
    <linearGradient id="linear-gradient-2" x1="0.25" y1="0.199" x2="0.883" y2="0.703" gradientUnits="objectBoundingBox">
      <stop offset="0.005" stop-color="#ebeaf0"/>
      <stop offset="0.989" stop-color="#e5e4ec"/>
    </linearGradient>
    <linearGradient id="linear-gradient-3" x1="2.499" y1="67.449" x2="-1.528" y2="72.82" gradientUnits="objectBoundingBox">
      <stop offset="0" stop-color="#18018f"/>
      <stop offset="0.989" stop-color="#00b6ff"/>
    </linearGradient>
    <linearGradient id="linear-gradient-4" x1="2.499" y1="67.445" x2="-1.528" y2="72.816" xlink:href="#linear-gradient-3"/>
    <linearGradient id="linear-gradient-5" x1="2.499" y1="67.445" x2="-1.528" y2="72.816" xlink:href="#linear-gradient-3"/>
    <linearGradient id="linear-gradient-6" x1="2.499" y1="67.445" x2="-1.528" y2="72.815" xlink:href="#linear-gradient-3"/>
    <linearGradient id="linear-gradient-7" x1="2.499" y1="67.445" x2="-1.528" y2="72.816" xlink:href="#linear-gradient-3"/>
  </defs>
  <g id="Grupo_1106035" data-name="Grupo 1106035" transform="translate(-19.801 -24.729)">
    <g id="Grupo_1106019" data-name="Grupo 1106019" transform="translate(19.801 24.729)">
      <path id="Trazado_891452" data-name="Trazado 891452" d="M106.02,36.408l-5.077,6.965V93.159a8.206,8.206,0,0,1-3.95,6.24l-63.7,36.773-6.65,9.132-.061.087s-5.812-3.347-5.812-3.365a2.165,2.165,0,0,1-.97-2.019V81.789a8.2,8.2,0,0,1,3.959-6.24L96.993,33.27c1.32-.769,2.49-.787,3.216-.218Z" transform="translate(-19.801 -26.904)" fill="#673a71"/>
      <path id="Trazado_891453" data-name="Trazado 891453" d="M26.644,151.675v12.209l-.061.087s-5.812-3.347-5.812-3.365a2.165,2.165,0,0,1-.97-2.019V100.368l5.872,2.613Z" transform="translate(-19.801 -45.482)" fill="#421d46"/>
      <g id="Grupo_1106013" data-name="Grupo 1106013" transform="translate(5.744 9.128)">
        <path id="Trazado_891454" data-name="Trazado 891454" d="M104.767,37.977,32.037,79.968c-2.386,1.377-4.32,4.428-4.32,6.814v57.676c0,2.386,1.934,3.2,4.32,1.826l72.73-41.991c2.386-1.377,4.32-4.428,4.32-6.814V39.8C109.087,37.417,107.153,36.6,104.767,37.977Z" transform="translate(-27.717 -37.308)" fill="#784b86"/>
        <path id="Trazado_891455" data-name="Trazado 891455" d="M30.577,144.077V86.614a4.873,4.873,0,0,1,2.35-3.706l72.519-41.869c1.3-.749,2.35-.3,2.35.993V99.495a4.875,4.875,0,0,1-2.35,3.707L32.927,145.071C31.629,145.82,30.577,145.375,30.577,144.077Z" transform="translate(-28.502 -38.232)" fill="#fffeff"/>
        <path id="Trazado_891456" data-name="Trazado 891456" d="M121.479,88.183,81.258,111.4v23l40.221-23.221Z" transform="translate(-42.407 -51.267)" fill="#fa4f47"/>
        <path id="Trazado_891457" data-name="Trazado 891457" d="M118.53,45.028,78.31,68.249V90.884l40.22-23.221Z" transform="translate(-41.598 -39.426)" fill="#bbdaf9"/>
        <path id="Trazado_891458" data-name="Trazado 891458" d="M63.712,136.262,33.9,153.47v15.374l29.807-17.209Z" transform="translate(-29.415 -64.458)" fill="#fa4f47"/>
        <path id="Trazado_891459" data-name="Trazado 891459" d="M36.766,161.385v2.805l25.655-14.811v-2.805Z" transform="translate(-30.2 -67.288)" fill="#421d46"/>
        <path id="Trazado_891460" data-name="Trazado 891460" d="M88.347,87.609v2.107L114,74.905V72.8Z" transform="translate(-44.352 -47.045)" fill="url(#linear-gradient)"/>
        <path id="Trazado_891461" data-name="Trazado 891461" d="M63.712,78.437,33.9,95.645v39.613L63.712,118.05Z" transform="translate(-29.415 -48.593)" fill="#ffb037"/>
        <g id="Grupo_1106012" data-name="Grupo 1106012" transform="translate(7.769 44.7)">
          <path id="Trazado_891462" data-name="Trazado 891462" d="M61.672,98.91,38.424,112.332v16.71L61.672,115.62Z" transform="translate(-38.424 -98.91)" fill="#26addb"/>
          <g id="Grupo_1106011" data-name="Grupo 1106011" transform="translate(4.667 0.312)">
            <path id="Trazado_891463" data-name="Trazado 891463" d="M61.4,101.722a10.738,10.738,0,0,1-.411,2.857l-6.547,2.85V104.05l6.547-4.71A6.326,6.326,0,0,1,61.4,101.722Z" transform="translate(-47.487 -99.34)" fill="#df3128"/>
            <path id="Trazado_891464" data-name="Trazado 891464" d="M51.813,105.831v3.379l-6.547,4.71a6.311,6.311,0,0,1-.411-2.382,10.742,10.742,0,0,1,.411-2.857Z" transform="translate(-44.856 -101.121)" fill="#df3128"/>
            <path id="Trazado_891465" data-name="Trazado 891465" d="M56.322,105.094a6.268,6.268,0,0,1-3.022,4.767c-1.669.964-3.022.392-3.022-1.277a6.266,6.266,0,0,1,3.022-4.767C54.969,102.853,56.322,103.425,56.322,105.094Z" transform="translate(-46.344 -100.44)" fill="#df3128"/>
          </g>
        </g>
        <path id="Trazado_891466" data-name="Trazado 891466" d="M120.668,87.722l-2.138-1.234L78.31,109.705l2.137,1.234Z" transform="translate(-41.598 -50.802)" fill="#df3128"/>
        <path id="Trazado_891467" data-name="Trazado 891467" d="M78.31,141.491l2.139,1.23,0-23-2.137-1.234Z" transform="translate(-41.598 -59.581)" fill="#bd221e"/>
      </g>
      <path id="Trazado_891468" data-name="Trazado 891468" d="M85.779,163.488,61.648,149.556,40.819,161.582l-2.42-.1v1.5L63.3,177.358a4.287,4.287,0,0,0,3.878,0l19.371-11.183a1.362,1.362,0,0,0,.8-1.12v-1.5Z" transform="translate(-24.904 -58.978)" fill="#ffb037"/>
      <g id="Grupo_1106014" data-name="Grupo 1106014" transform="translate(13.497 90.579)" opacity="0.75">
        <path id="Trazado_891469" data-name="Trazado 891469" d="M67.906,153.169l-2.952-.141v24.785a3.712,3.712,0,0,1-1.648-.453l-24.9-14.38v-1.5l2.42.1,20.828-12.027Z" transform="translate(-38.401 -149.558)" fill="#f99f27"/>
      </g>
      <path id="Trazado_891470" data-name="Trazado 891470" d="M86.554,164.108,67.183,175.291a4.287,4.287,0,0,1-3.878,0L38.4,160.913,61.649,147.49l24.906,14.379A1.182,1.182,0,0,1,86.554,164.108Z" transform="translate(-24.904 -58.411)" fill="#f99f27"/>
      <g id="Grupo_1106015" data-name="Grupo 1106015" transform="translate(55.19 57.742)">
        <path id="Trazado_891471" data-name="Trazado 891471" d="M103.146,120.443c0,2.286-1.62,4.287-3.892,5.6l-1.065.615v3.281l-2.329,1.345V121.44l3.182-1.837C101.583,118.135,103.146,118.284,103.146,120.443Zm-2.4,1.386c0-1.051-.583-1.212-1.733-.548l-.824.475v3.224l.866-.5A2.921,2.921,0,0,0,100.745,121.829Z" transform="translate(-95.859 -108.237)" fill="#fffeff"/>
        <path id="Trazado_891472" data-name="Trazado 891472" d="M110.682,120.4l-2.869,1.657-.5,2.4-2.415,1.394L107.87,114.3l2.826-1.632,2.969,8.129-2.471,1.427Zm-.4-1.461-1.037-3.748-1.037,4.945Z" transform="translate(-98.34 -106.599)" fill="#fffeff"/>
        <path id="Trazado_891473" data-name="Trazado 891473" d="M120.954,112.276v3.693l-2.329,1.345v-3.679l-3.154-4.344,2.543-1.468,1.818,3.282,1.818-5.382,2.457-1.419Z" transform="translate(-101.24 -104.304)" fill="#fffeff"/>
      </g>
      <g id="Grupo_1106018" data-name="Grupo 1106018" transform="translate(50.154)">
        <path id="Trazado_891474" data-name="Trazado 891474" d="M97.407,86.152v1.273a4.863,4.863,0,0,1-1.78,4.175c-1.564,1.1-3.985,1-6.708-.569l6.671-3.839Z" transform="translate(-88.919 -41.582)" fill="#fffeff"/>
        <path id="Trazado_891475" data-name="Trazado 891475" d="M97.71,85.88l-.3,1.471a4.863,4.863,0,0,1-1.78,4.175c-1.564,1.1-3.985,1-6.708-.569l6.671-3.839Z" transform="translate(-88.919 -41.507)" opacity="0.3" fill="url(#linear-gradient-2)"/>
        <path id="Trazado_891476" data-name="Trazado 891476" d="M120.97,25.45l-.1,34.127c0,2.2-.84,3.73-2.22,4.442L98.341,75.631a5.541,5.541,0,0,0,1.876-4.477V37.431Z" transform="translate(-91.504 -24.927)" fill="#e1edf9"/>
        <path id="Trazado_891477" data-name="Trazado 891477" d="M120.472,33.363l-16.084,9.286V40.89L120.472,31.6Z" transform="translate(-93.163 -26.615)" fill="url(#linear-gradient-3)"/>
        <path id="Trazado_891478" data-name="Trazado 891478" d="M120.472,41.8l-16.084,9.287v-1.76l16.084-9.286Z" transform="translate(-93.163 -28.93)" fill="url(#linear-gradient-4)"/>
        <path id="Trazado_891479" data-name="Trazado 891479" d="M120.472,50.237l-16.084,9.287v-1.76l16.084-9.286Z" transform="translate(-93.163 -31.245)" fill="url(#linear-gradient-5)"/>
        <path id="Trazado_891480" data-name="Trazado 891480" d="M120.472,58.675,104.388,67.96V66.2l16.084-9.287Z" transform="translate(-93.163 -33.56)" fill="url(#linear-gradient-6)"/>
        <path id="Trazado_891481" data-name="Trazado 891481" d="M120.472,67.112,104.388,76.4V74.639l16.084-9.287Z" transform="translate(-93.163 -35.875)" fill="url(#linear-gradient-7)"/>
        <g id="Grupo_1106016" data-name="Grupo 1106016" transform="translate(0 11.98)">
          <path id="Trazado_891482" data-name="Trazado 891482" d="M97.633,41.76V75.483c0,2.21-.816,3.9-2.3,4.754a4.726,4.726,0,0,1-2.4.6,8.79,8.79,0,0,1-4.018-1.119v-1.01c2.316,1.337,4.5,1.589,5.961.741a4.3,4.3,0,0,0,1.844-3.966V41.239Z" transform="translate(-88.919 -41.239)" fill="#fffeff"/>
        </g>
        <g id="Grupo_1106017" data-name="Grupo 1106017" transform="translate(0 11.98)">
          <path id="Trazado_891483" data-name="Trazado 891483" d="M97.633,41.76V75.483c0,2.21-.816,3.9-2.3,4.754a4.726,4.726,0,0,1-2.4.6,8.79,8.79,0,0,1-4.018-1.119v-1.01c2.316,1.337,4.5,1.589,5.961.741a4.3,4.3,0,0,0,1.844-3.966V41.239Z" transform="translate(-88.919 -41.239)" fill="#a7d0f9"/>
        </g>
        <path id="Trazado_891484" data-name="Trazado 891484" d="M120.426,24.729,99.675,36.708l.909.522,20.751-11.979Z" transform="translate(-91.87 -24.729)" fill="#fffeff"/>
        <path id="Trazado_891485" data-name="Trazado 891485" d="M120.426,24.729,99.675,36.708l.909.522,20.751-11.979Z" transform="translate(-91.87 -24.729)" fill="#bbdaf9"/>
      </g>
    </g>
    <g id="Grupo_1106032" data-name="Grupo 1106032" transform="translate(84.677 91.386)">
      <g id="Grupo_1106020" data-name="Grupo 1106020" transform="translate(8.869 39.539)" opacity="0.1">
        <path id="Trazado_891486" data-name="Trazado 891486" d="M134.453,172.369c2.979,1.72,2.979,4.508,0,6.229a11.925,11.925,0,0,1-10.789,0c-2.979-1.72-2.979-4.508,0-6.229A11.925,11.925,0,0,1,134.453,172.369Z" transform="translate(-121.43 -171.079)" fill="#607080"/>
      </g>
      <g id="Grupo_1106031" data-name="Grupo 1106031" transform="translate(0)">
        <path id="Trazado_891487" data-name="Trazado 891487" d="M129.6,180.337a2.054,2.054,0,0,1-1.3.55.879.879,0,0,1-.237-.033c-.6-.171-3.762-1.7-4-2.217a5.189,5.189,0,0,1-.474-2.043.754.754,0,0,1,.689-.278,12.544,12.544,0,0,0,2.966.8,1.062,1.062,0,0,1,.485.115,6.64,6.64,0,0,1,1.667,1.326S129.8,180.133,129.6,180.337Z" transform="translate(-113.146 -132.974)" fill="#110812"/>
        <g id="Grupo_1106021" data-name="Grupo 1106021" transform="translate(10.417 43.329)" opacity="0.5">
          <path id="Trazado_891488" data-name="Trazado 891488" d="M128.3,180.888a.879.879,0,0,1-.237-.033c-.6-.171-3.762-1.7-4-2.217a5.188,5.188,0,0,1-.474-2.043.754.754,0,0,1,.689-.278,12.544,12.544,0,0,0,2.966.8,1.062,1.062,0,0,1,.485.115c-.313.6-.6,1.128-.6,1.128l-.115.022.545,1.231A2.5,2.5,0,0,0,128.3,180.888Z" transform="translate(-123.563 -176.303)" fill="#582f5c"/>
        </g>
        <path id="Trazado_891489" data-name="Trazado 891489" d="M138.3,175.831a.278.278,0,0,1-.025.155,1.112,1.112,0,0,1-.951.678,3.588,3.588,0,0,1-1-.068,2.875,2.875,0,0,1-.991-.5c-.359-.259-.9-1.166-1.468-1.553s-1.593-1.1-1.593-1.1a4.107,4.107,0,0,1,.073-.694,6.043,6.043,0,0,1,1.907.084c.272.082,1.471.719,1.839.918l.109.057,1.918.676Z" transform="translate(-115.535 -131.984)" fill="#110812"/>
        <g id="Grupo_1106022" data-name="Grupo 1106022" transform="translate(16.734 40.712)" opacity="0.5">
          <path id="Trazado_891490" data-name="Trazado 891490" d="M136.322,176.6a2.875,2.875,0,0,1-.991-.5c-.359-.259-.9-1.166-1.468-1.553s-1.593-1.1-1.593-1.1a4.107,4.107,0,0,1,.073-.694,6.043,6.043,0,0,1,1.907.084c.272.082,1.471.719,1.839.918l-.613.935A3.337,3.337,0,0,0,136.322,176.6Z" transform="translate(-132.269 -172.696)" fill="#582f5c"/>
        </g>
        <path id="Trazado_891491" data-name="Trazado 891491" d="M142.226,152.143c-.065.327-1.918,1.681-1.918,1.681l-.169-.348-.548-1.12,1.264-3.271.959.161.27.272S142.294,151.813,142.226,152.143Z" transform="translate(-117.544 -125.506)" fill="#face92"/>
        <path id="Trazado_891492" data-name="Trazado 891492" d="M141.815,149.244l-.118,2.73-1.558,1.5-.547-1.12,1.264-3.271Z" transform="translate(-117.544 -125.506)" fill="#f5c48f" opacity="0.75"/>
        <path id="Trazado_891493" data-name="Trazado 891493" d="M143.105,143.3a.746.746,0,0,1-.406.52,2.185,2.185,0,0,1-1.5.18,1.693,1.693,0,0,1-.471-.18.689.689,0,0,1-.406-.567.338.338,0,0,1,.006-.076.488.488,0,0,1,.054-.158c.022-.062.046-.142.076-.237.115-.346.286-.9.463-1.561a17.413,17.413,0,0,0,.711-4.579,8.89,8.89,0,0,0-.858-3.421,7.876,7.876,0,0,0-.6-1.07v-4.827a2.3,2.3,0,0,1,.414.194,2.964,2.964,0,0,1,.514.373,36.774,36.774,0,0,1,2.939,7.632C144.247,136.95,143.105,143.3,143.105,143.3Z" transform="translate(-117.704 -119.536)" fill="#ffb037"/>
        <g id="Grupo_1106023" data-name="Grupo 1106023" transform="translate(22.471 11.472)" opacity="0.25">
          <path id="Trazado_891494" data-name="Trazado 891494" d="M142.4,137.707a55.2,55.2,0,0,1-1.2,7.687,1.694,1.694,0,0,1-.471-.18.689.689,0,0,1-.406-.567.336.336,0,0,1,.006-.076.488.488,0,0,1,.054-.158c.022-.062.046-.141.076-.237.115-.346.286-.9.463-1.561a17.413,17.413,0,0,0,.711-4.579,8.89,8.89,0,0,0-.858-3.421,7.874,7.874,0,0,0-.6-1.07V132.4l.741,1.084A9.122,9.122,0,0,1,142.4,137.707Z" transform="translate(-140.175 -132.4)" fill="#bd221e"/>
        </g>
        <path id="Trazado_891495" data-name="Trazado 891495" d="M137.359,148.96s-.362,5.045-.335,6.877a30.553,30.553,0,0,0,.188,3.345c.054.406-.174,7.826-.174,7.826a.823.823,0,0,1-.483.673,2.615,2.615,0,0,1-1.811.2,1.99,1.99,0,0,1-.52-.2.823.823,0,0,1-.483-.673c-.011,0,.071-7.232-.011-8.393-.057-.817-.553-3.669-.839-5.274l-2.389,6.246V170.28a.815.815,0,0,1-.482.673,2.577,2.577,0,0,1-1.716.226,1.98,1.98,0,0,1-.615-.226.815.815,0,0,1-.482-.673l-.351-10.814s.073-7.853,1.443-12.44l1.716-.25,6.747-.991A8.694,8.694,0,0,1,137.359,148.96Z" transform="translate(-114.05 -124.6)" fill="#421d46"/>
        <g id="Grupo_1106024" data-name="Grupo 1106024" transform="translate(18.841 26.859)" opacity="0.5">
          <path id="Trazado_891496" data-name="Trazado 891496" d="M137.131,161.329l-.106,8.7a1.989,1.989,0,0,1-.52-.2.823.823,0,0,1-.483-.673c-.011,0,.071-7.232-.011-8.393-.057-.817-.553-3.669-.839-5.274l1.051-1.882Z" transform="translate(-135.173 -153.606)" fill="#582f5c"/>
        </g>
        <g id="Grupo_1106025" data-name="Grupo 1106025" transform="translate(12.806 22.175)" opacity="0.5">
          <path id="Trazado_891497" data-name="Trazado 891497" d="M128.318,158.882c-.139,1.749-.052,9.779-.014,12.672a1.98,1.98,0,0,1-.615-.226.815.815,0,0,1-.482-.673l-.351-10.814s.073-7.853,1.443-12.44l1.716-.25.542,1.686S128.487,156.741,128.318,158.882Z" transform="translate(-126.856 -147.15)" fill="#582f5c"/>
        </g>
        <path id="Trazado_891498" data-name="Trazado 891498" d="M113.035,122.392l-1.291,2.4-.213-.411s-1.035-2.024-1.035-2.024a.475.475,0,0,0-.4-.261,2.15,2.15,0,0,1-.275-.03c-.417-.068-.676-1.727-.6-2.122a1.2,1.2,0,0,1,.332-.469,9.793,9.793,0,0,1,.951-.809l.03-.022a10.98,10.98,0,0,1-1-1.626.349.349,0,0,1,0-.294c.084-.155.329-.141.419-.123.112.028,2.117,2.03,2.637,2.55a.5.5,0,0,1,.142.3,10.158,10.158,0,0,1,.082,1.822A2.073,2.073,0,0,0,113.035,122.392Z" transform="translate(-109.207 -116.591)" fill="#face92"/>
        <path id="Trazado_891499" data-name="Trazado 891499" d="M137.553,142.378a3.832,3.832,0,0,1-.613.406,9.357,9.357,0,0,1-4.5,1.057,13.3,13.3,0,0,1-2.642-.194c-1.376-.27-1.825-.768-1.853-1.16-.036-.575.893-3.881.64-5.341a23.891,23.891,0,0,0-.776-2.362c-.09-.275-.174-.559-.245-.847a5.138,5.138,0,0,1-.052-2.789,3.208,3.208,0,0,1,.534-1.019,10.417,10.417,0,0,1,3.647-1.961,14.943,14.943,0,0,1,2.086-.542,17.871,17.871,0,0,1,2.874-.3c.014.019.062.093.133.213a5.953,5.953,0,0,1,.73,3.378c-.068.8-.169,1.555-.259,2.307a21.971,21.971,0,0,0-.218,3.923c.065,1.4.239,3.018.365,4.078C137.488,141.92,137.553,142.378,137.553,142.378Z" transform="translate(-114.182 -119.536)" fill="#f99f27"/>
        <g id="Grupo_1106026" data-name="Grupo 1106026" transform="translate(13.379 14.281)" opacity="0.25">
          <path id="Trazado_891500" data-name="Trazado 891500" d="M129.88,146.1c-1.376-.27-1.825-.768-1.853-1.16-.036-.575.893-3.881.64-5.341a23.886,23.886,0,0,0-.776-2.362c-.09-.275-.174-.559-.245-.847l2.146-.12s.25,2.519.512,4.222A25.633,25.633,0,0,1,129.88,146.1Z" transform="translate(-127.646 -136.272)" fill="#bd221e"/>
        </g>
        <g id="Grupo_1106027" data-name="Grupo 1106027" transform="translate(8.118 8.632)" opacity="0.25">
          <path id="Trazado_891501" data-name="Trazado 891501" d="M130.541,128.62c-2.363,1.768-1.925,1.655-3.348,2.239-.4.166-.926.368-1.588.607-.117.041-.239.084-.368.128-2.117.741-4.6-.618-4.843-.758a5.447,5.447,0,0,0,2.013.422,7.721,7.721,0,0,0,3.35-.716,1.042,1.042,0,0,1,.382-.1,10.416,10.416,0,0,1,3.647-1.961Z" transform="translate(-120.395 -128.486)" fill="#bd221e"/>
        </g>
        <g id="Grupo_1106028" data-name="Grupo 1106028" transform="translate(19.596 7.79)" opacity="0.25">
          <path id="Trazado_891502" data-name="Trazado 891502" d="M139.5,127.52l-.281.019c-.044.005-.087.008-.133.011-.91.082-2.487.275-2.487.275l-.387-.2a17.871,17.871,0,0,1,2.874-.3A2.362,2.362,0,0,1,139.5,127.52Z" transform="translate(-136.213 -127.326)" fill="#bd221e"/>
        </g>
        <path id="Trazado_891503" data-name="Trazado 891503" d="M109.638,117.069a.349.349,0,0,1,0-.294L111,118.5l-.357.191A11.038,11.038,0,0,1,109.638,117.069Z" transform="translate(-109.317 -116.641)" fill="#f5c48f" opacity="0.75"/>
        <path id="Trazado_891504" data-name="Trazado 891504" d="M111.629,124.363l-.1,1.106-1.035-2.021a.475.475,0,0,0-.4-.261,2.151,2.151,0,0,1-.275-.03c-.417-.068-.676-1.727-.6-2.122a1.2,1.2,0,0,1,.332-.469,4.483,4.483,0,0,1,.733.959C110.6,122.105,111.629,124.363,111.629,124.363Z" transform="translate(-109.207 -117.682)" fill="#f5c48f" opacity="0.75"/>
        <path id="Trazado_891505" data-name="Trazado 891505" d="M135.347,125.387c-.008.218-.011.474-.014.711,0,.3-.008.231-.008.166a.62.62,0,0,1-.354.515,4.164,4.164,0,0,1-2.04.4,1.885,1.885,0,0,1-.384-.046,3,3,0,0,1-.8-.329c.011-.062.038-.452.073-1.223a.21.21,0,0,0-.144-.213,1.8,1.8,0,0,1-1.152-.978,17.17,17.17,0,0,1-.373-2.982c0-.038.044-.03.134.014a4.9,4.9,0,0,1,.537.34c.038.027.079.057.123.087C132.394,122.884,135.347,125.306,135.347,125.387Z" transform="translate(-114.953 -117.905)" fill="#face92"/>
        <path id="Trazado_891506" data-name="Trazado 891506" d="M132.547,125.409v1.722a3,3,0,0,1-.8-.329c.011-.062.038-.452.073-1.223a.21.21,0,0,0-.144-.213,1.8,1.8,0,0,1-1.152-.978,17.17,17.17,0,0,1-.373-2.982c0-.038.044-.03.134.014.21.2.422.362.537.34a.062.062,0,0,0,.038-.014c.033-.025.06.017.084.1.142.506.481.39.772.654A12.626,12.626,0,0,1,132.547,125.409Z" transform="translate(-114.953 -117.905)" fill="#f5c48f" opacity="0.75"/>
        <path id="Trazado_891507" data-name="Trazado 891507" d="M136.311,121.04c-.093.379-.469,1.228-.539,1.612a10.634,10.634,0,0,1-.665,1.49,3.979,3.979,0,0,1-1.958.43.947.947,0,0,1-.242-.041c-.028-.011-.079-.033-.142-.062a1.81,1.81,0,0,1-1-1.22l-.03-.126a1.83,1.83,0,0,1-.041-.572,2.812,2.812,0,0,0,.006-.337c-.033-.659-.335-.755-.564-.8s-.272.668-.272.668l-.316-.1-.046-1.024a.454.454,0,0,0-.106-.289c-.248-.283-1.12-.466-1.117-1.561,0-.5.531-2.239,3.179-2.266a7.385,7.385,0,0,1,1.171.087A3.262,3.262,0,0,1,136.311,121.04Z" transform="translate(-114.713 -116.66)" fill="#110812"/>
        <g id="Grupo_1106029" data-name="Grupo 1106029" transform="translate(14.561 0.183)" opacity="0.5">
          <path id="Trazado_891508" data-name="Trazado 891508" d="M133.149,124.572a.946.946,0,0,1-.242-.041c-.028-.011-.079-.033-.142-.062a1.81,1.81,0,0,1-1-1.221l-.03-.126a1.83,1.83,0,0,1-.041-.572,2.813,2.813,0,0,0,.006-.337c-.033-.659-.335-.755-.564-.8s-.272.668-.272.668l-.316-.1-.046-1.024a.454.454,0,0,0-.106-.289c-.248-.283-1.12-.466-1.117-1.561,0-.5.531-2.239,3.179-2.266-.836.433-2.307,1.354-1.588,2.223a5.791,5.791,0,0,1,1.234,3.56A2.273,2.273,0,0,0,133.149,124.572Z" transform="translate(-129.274 -116.843)" fill="#582f5c"/>
        </g>
        <path id="Trazado_891509" data-name="Trazado 891509" d="M125.877,131.622c-.141,1.95-.975,2.136-2.138,2.136-.073,0-.163,0-.27,0-1.583-.038-6.6-.34-7.071-.646s-4.2-5.957-4.709-6.731c-.022-.028-.041-.057-.06-.087a.927.927,0,0,1-.1-.447,2.413,2.413,0,0,1,.539-1.373,2.736,2.736,0,0,1,.774-.694c.564-.327,1.046-.245,1.231.152l3.87,5.549a5.381,5.381,0,0,0,2.032.433,7.721,7.721,0,0,0,3.35-.716,1.041,1.041,0,0,1,.382-.1,1.079,1.079,0,0,1,.534.106,3.721,3.721,0,0,1,.52.305A2.322,2.322,0,0,1,125.877,131.622Z" transform="translate(-109.844 -118.507)" fill="#ffb037"/>
        <g id="Grupo_1106030" data-name="Grupo 1106030" transform="translate(1.684 5.965)" opacity="0.25">
          <path id="Trazado_891510" data-name="Trazado 891510" d="M116.4,133.449c-.471-.3-4.2-5.957-4.709-6.731-.022-.028-.041-.057-.06-.087a.927.927,0,0,1-.1-.447,2.413,2.413,0,0,1,.539-1.373S117.207,133.359,116.4,133.449Z" transform="translate(-111.528 -124.811)" fill="#bd221e"/>
        </g>
      </g>
    </g>
  </g>
</svg>
